<?xml version="1.0" encoding="UTF-8" standalone="no"?>
<!-- Created with Inkscape (http://www.inkscape.org/) -->

<svg
   width="150mm"
   height="150mm"
   viewBox="0 0 150 150"
   version="1.1"
   id="svg17438"
   xmlns="http://www.w3.org/2000/svg"
   xmlns:svg="http://www.w3.org/2000/svg">
  <defs
     id="defs17435" />
  <g
     id="layer1">
    <g
       id="g21764"
       transform="translate(-46.903156,-9.090475)">
      <path
         id="path20994"
         style="color:#000000;fill:#000000;stroke-width:7.22;-inkscape-stroke:none;paint-order:markers stroke fill"
         d="m 76.010864,39.492163 c -5.909811,-2.8e-5 -10.700667,4.790828 -10.700639,10.700639 2.58e-4,5.909609 4.79103,10.70015 10.700639,10.700122 2.288401,-0.0023 4.515785,-0.738196 6.355168,-2.099613 0.427564,-3.331121 2.014329,-6.31488 4.340303,-8.531779 0.0018,-0.0229 0.0035,-0.04582 0.0052,-0.06873 2.8e-5,-5.909811 -4.790828,-10.700667 -10.700639,-10.700639 z m 91.784576,0 c -5.90981,-2.8e-5 -10.70067,4.790827 -10.70064,10.700639 0.002,0.02274 0.003,0.04548 0.005,0.06821 2.32638,2.217063 3.91332,5.201234 4.34082,8.532812 1.8393,1.361127 4.06648,2.09682 6.35465,2.099097 5.90961,2.8e-5 10.70038,-4.790512 10.70064,-10.700122 3e-5,-5.909812 -4.79083,-10.700667 -10.70064,-10.700639 z M 65.877116,63.857084 c -5.768411,0 -10.412284,4.643872 -10.412284,10.412284 v 17.936373 3.819405 10.412804 h 10.412284 4.392497 2.130619 v -5.2e-4 -3.84163 -17.914147 c 0,-7.702512 6.312322,-14.013799 14.013615,-14.019299 -1.834766,-1.850149 -3.169736,-4.194182 -3.785816,-6.80527 z m 95.301164,0 c -0.61703,2.610271 -1.95367,4.953233 -3.78789,6.803202 7.7023,0.0043 14.01569,6.318129 14.01569,14.021367 v 17.914147 3.84163 5.2e-4 h 2.92953 3.59358 10.41229 V 96.025146 90.354692 74.269368 c 0,-5.768412 -4.64386,-10.412284 -10.41229,-10.412284 z m -70.165231,1.200444 c 0.713692,0.891822 1.640568,1.60305 2.708879,2.060856 -0.780212,-0.826705 -1.693867,-1.525363 -2.708879,-2.060856 z m 61.781241,0 c -1.01555,0.535664 -1.9299,1.234215 -2.71043,2.061373 1.06886,-0.457833 1.99648,-1.169139 2.71043,-2.061373 z" />
      <path
         id="path21000"
         style="color:#000000;fill:#000000;stroke-width:7.22;-inkscape-stroke:none;paint-order:markers stroke fill"
         d="m 96.556897,49.904964 c -5.909811,-2.8e-5 -10.700667,4.790828 -10.700639,10.700639 2.58e-4,5.909609 4.79103,10.70015 10.700639,10.700122 5.909613,3e-5 10.700383,-4.790511 10.700643,-10.700122 3e-5,-5.909813 -4.79083,-10.700669 -10.700643,-10.700639 z m 50.692513,0 c -5.90981,-2.8e-5 -10.70067,4.790827 -10.70064,10.700639 2.6e-4,5.90961 4.79103,10.70015 10.70064,10.700122 5.90961,2.8e-5 10.70038,-4.790512 10.70064,-10.700122 3e-5,-5.909812 -4.79083,-10.700667 -10.70064,-10.700639 z M 86.423149,74.269885 c -5.768414,0 -10.412285,4.64387 -10.412285,10.412285 v 17.91363 3.84215 10.4128 h 10.412285 3.912939 5.622913 V 105.82248 94.13844 c 0,-8.272815 6.779139,-15.053112 15.050759,-15.058512 -1.34977,-1.36152 -2.44789,-2.971891 -3.21996,-4.752165 -0.36115,-0.03757 -0.72773,-0.05788 -1.09915,-0.05788 z m 50.692511,0 c -0.37142,0 -0.738,0.02031 -1.09916,0.05788 -0.77243,1.780194 -1.87123,3.390546 -3.2215,4.752165 8.27251,0.0043 15.05076,6.785031 15.05076,15.058512 v 22.712308 h 5.62394 3.91346 10.41228 v -10.4128 -3.84215 -17.913628 c 0,-5.768415 -4.64388,-10.412285 -10.41228,-10.412285 z" />
      <path
         style="color:#000000;fill:#000000;stroke-width:7.75428;-inkscape-stroke:none;paint-order:markers stroke fill"
         d="m 121.90315,56.788782 a 11.492424,11.492424 0 0 0 -11.49284,11.492322 11.492424,11.492424 0 0 0 11.49284,11.492321 11.492424,11.492424 0 0 0 11.49233,-11.492321 11.492424,11.492424 0 0 0 -11.49233,-11.492322 z m -10.88357,26.167912 c -6.19528,0 -11.18278,4.987496 -11.18278,11.182779 v 11.683007 11.68249 11.18382 h 11.18278 21.76715 10.85256 v -8.47236 c 0.21461,-0.86776 0.33022,-1.77556 0.33022,-2.71146 V 94.139473 c 0,-6.195283 -4.98751,-11.182779 -11.18278,-11.182779 z"
         id="path21018" />
    </g>
  </g>
</svg>
