<?xml version="1.0" encoding="UTF-8" standalone="no"?>
<!-- Created with Inkscape (http://www.inkscape.org/) -->

<svg
   width="197.70844"
   height="97.640831"
   viewBox="0 0 52.310356 25.834136"
   version="1.1"
   id="svg5"
   xml:space="preserve"
   xmlns="http://www.w3.org/2000/svg"
   xmlns:svg="http://www.w3.org/2000/svg"><defs
     id="defs2" /><g
     id="layer1"
     transform="translate(138.87525,-298.39051)"><path
       id="path154-6-7-6"
       style="color:#000000;fill:#ffffff;-inkscape-stroke:none"
       d="m -88.497957,298.39057 -0.273369,0.002 v 0.0408 c -0.11099,0.0155 -0.223697,0.018 -0.332279,0.0512 l -3.661792,1.1188 c -1.88605,0.57751 -3.223261,2.2581 -3.363619,4.22455 l -0.205156,1.63297 -1.019576,-0.99787 c -0.673062,-0.65813 -1.576689,-1.02733 -2.517159,-1.02733 h -8.346773 c -1.46221,-0.18462 -2.48784,-1.15057 -4.16306,-2.12493 -1.67932,-0.97676 -3.98979,-1.9104 -7.97057,-1.91048 h -5.2e-4 c -3.9853,9e-5 -6.08691,1.02605 -7.18354,2.096 -0.54834,0.535 -0.84196,1.07717 -0.9958,1.48828 -0.0658,0.17595 -0.10594,0.32991 -0.13126,0.45113 h -4.07779 v 0.007 c -1.93263,0.0918 -2.9887,1.13738 -3.50211,2.16421 -0.53751,1.07501 -0.53485,2.14095 -0.53485,2.14095 v 1.70326 h -0.49454 v -5.21519 c 0,-0.0103 -0.001,-0.0203 -0.002,-0.0305 v -0.24495 h -0.0491 c -0.11387,-0.3052 -0.40914,-0.52503 -0.75189,-0.52503 -0.34277,0 -0.63701,0.21979 -0.75034,0.52503 h -0.0506 v 0.27544 1.48621 12.12123 0.27543 1.21078 0.27544 h 0.0506 c 0.11353,0.30472 0.40826,0.52348 0.75034,0.52348 0.34206,0 0.63782,-0.2188 0.75189,-0.52348 h 0.0491 v -0.24495 c 3.9e-4,-0.0102 0.002,-0.0202 0.002,-0.0305 v -5.21467 h 0.49454 v 1.70326 c 0,0 -0.002,1.06543 0.53485,2.14044 0.51341,1.02683 1.56949,2.07294 3.50211,2.16472 v 0.007 h 0.27544 0.002 c 1.41248,2e-5 2.97188,0.0198 4.58525,0.0403 -0.50406,0.4215 -0.82579,1.05455 -0.82579,1.76062 0,1.26311 1.03065,2.29288 2.29496,2.29288 1.26429,0 2.29495,-1.02999 2.29495,-2.29288 0,-0.68776 -0.30521,-1.30633 -0.78704,-1.72754 6.98972,0.0602 15.06558,-0.0562 22.00796,-1.65158 4.827171,-1.10933 9.113895,-2.93417 12.091771,-5.94537 2.977875,-3.01121 4.617256,-7.21152 4.159953,-12.9527 -0.01739,-0.21942 -0.129057,-0.3657 -0.250114,-0.5178 l -0.0016,-0.002 c -0.397391,-0.49125 -0.995692,-0.74849 -1.603519,-0.74414 -6.09e-4,1e-5 -0.0014,0 -0.0021,0 z m 0.0036,0.55242 v 5.2e-4 h 0.0021 c 0.450132,-0.004 0.88355,0.18495 1.169954,0.53899 0.0918,0.11658 0.131522,0.22637 0.130742,0.21652 0.447376,5.61656 -1.134351,9.61799 -4.00389,12.51965 -2.86954,2.90166 -7.054522,4.69937 -11.822009,5.79499 -9.44176,2.16981 -21.08808,1.57609 -29.1698,1.56425 v -15.58975 h 32.316369 c 0.795856,0 1.560694,0.31192 2.13062,0.8692 l 1.814359,1.7756 0.347783,-2.75797 v -0.008 c 0.124226,-1.74044 1.303665,-3.22352 2.972945,-3.73466 l 3.663859,-1.11931 c 0.147895,-0.0452 0.297849,-0.0695 0.447001,-0.0703 z m -31.856973,1.01028 c 3.89575,0 6.07034,0.89172 7.69307,1.83554 1.07898,0.62758 1.9668,1.20533 2.90215,1.64693 h -18.32188 c 0.0188,-0.0929 0.004,-0.095 0.0646,-0.25786 0.12926,-0.34542 0.37746,-0.81148 0.86299,-1.2852 0.97107,-0.94744 2.90785,-1.93941 6.79907,-1.93941 z m -12.38891,4.10931 v 15.44143 c -1.6829,-0.1061 -2.5664,-0.90775 -3.00808,-1.7911 -0.47156,-0.94312 -0.47439,-1.89446 -0.47439,-1.89446 v -8.07031 c 0,0 0.003,-0.95134 0.47439,-1.89446 0.44168,-0.88335 1.32518,-1.68501 3.00808,-1.7911 z m -5.58209,0.45113 h 0.4961 V 305.17 h -0.4961 z m 0,1.20871 h 0.4961 v 3.72898 0.27491 4.38888 3.72846 h -0.4961 z m 1.05059,4.2814 h 0.49454 v 3.55844 h -0.49454 z m 10.86342,1.50223 c -0.079,0 -0.15711,0.004 -0.2341,0.0119 -0.077,0.008 -0.15279,0.0193 -0.22738,0.0346 -0.0746,0.0153 -0.14783,0.0344 -0.21962,0.0568 -0.0718,0.0224 -0.14224,0.0479 -0.21084,0.077 -0.0686,0.0291 -0.13548,0.0618 -0.2005,0.0971 -0.065,0.0354 -0.12808,0.0739 -0.18914,0.11524 -0.0611,0.0413 -0.12003,0.0855 -0.17673,0.13229 -0.0567,0.0468 -0.11134,0.0964 -0.1633,0.14831 -0.052,0.052 -0.10148,0.10608 -0.14831,0.16279 -0.0468,0.0567 -0.091,0.11567 -0.13229,0.17673 -0.0413,0.0611 -0.0793,0.12411 -0.11473,0.18913 -0.0354,0.065 -0.068,0.13242 -0.0971,0.20103 -0.0291,0.0686 -0.0551,0.13853 -0.0775,0.21032 -0.0224,0.0718 -0.041,0.14503 -0.0563,0.21962 -0.0153,0.0746 -0.0273,0.1509 -0.0351,0.2279 -0.008,0.077 -0.0119,0.15507 -0.0119,0.23409 0,0.079 0.004,0.15711 0.0119,0.2341 0.008,0.077 0.0198,0.15281 0.0351,0.22737 0.0153,0.0746 0.0339,0.14787 0.0563,0.21963 0.0224,0.0718 0.0484,0.14176 0.0775,0.21032 0.0291,0.0686 0.0618,0.13553 0.0971,0.2005 0.0354,0.065 0.0734,0.12814 0.11473,0.18914 0.0413,0.061 0.0855,0.11957 0.13229,0.17622 0.0468,0.0566 0.0963,0.11139 0.14831,0.16329 0.052,0.0519 0.10659,0.10103 0.1633,0.1478 0.0567,0.0468 0.11567,0.091 0.17673,0.13229 0.0611,0.0412 0.12411,0.0794 0.18914,0.11472 0.065,0.0353 0.1319,0.0676 0.2005,0.0966 0.0686,0.029 0.13905,0.0551 0.21084,0.0775 0.0718,0.0224 0.14504,0.041 0.21962,0.0563 0.0746,0.0153 0.15039,0.0273 0.22738,0.0351 0.077,0.008 0.15509,0.0119 0.2341,0.0119 h 16.14836 c 0.079,0 0.15711,-0.004 0.2341,-0.0119 0.077,-0.008 0.15279,-0.0198 0.22737,-0.0351 0.0744,-0.0153 0.14799,-0.034 0.21963,-0.0563 1.5e-4,-5e-5 3.6e-4,5e-5 5.2e-4,0 0.0718,-0.0224 0.14172,-0.0485 0.21032,-0.0775 0.0686,-0.0291 0.13548,-0.0613 0.2005,-0.0966 0.065,-0.0353 0.12808,-0.0735 0.18914,-0.11472 0.0611,-0.0412 0.12002,-0.0855 0.17673,-0.13229 0.0567,-0.0468 0.11133,-0.0959 0.1633,-0.1478 0.052,-0.0519 0.10148,-0.10665 0.14831,-0.16329 0.0468,-0.0566 0.091,-0.11522 0.13229,-0.17622 0.0413,-0.061 0.0798,-0.12416 0.11524,-0.18914 0.0354,-0.065 0.0675,-0.13194 0.0966,-0.2005 0.0291,-0.0686 0.0551,-0.13857 0.0775,-0.21032 0.0224,-0.0718 0.0415,-0.14507 0.0569,-0.21963 0.0153,-0.0746 0.0268,-0.15039 0.0346,-0.22737 0.008,-0.077 0.0119,-0.15508 0.0119,-0.2341 0,-0.079 -0.004,-0.15709 -0.0119,-0.23409 -0.008,-0.077 -0.0193,-0.15331 -0.0346,-0.2279 -0.0153,-0.0746 -0.0344,-0.14783 -0.0569,-0.21962 -0.0224,-0.0718 -0.0484,-0.14172 -0.0775,-0.21032 -0.0291,-0.0686 -0.0612,-0.136 -0.0966,-0.20103 -0.0354,-0.065 -0.0739,-0.12807 -0.11524,-0.18913 -0.0413,-0.0611 -0.0855,-0.12003 -0.13229,-0.17673 -0.0468,-0.0567 -0.0963,-0.11082 -0.14831,-0.16279 -0.052,-0.052 -0.10659,-0.10148 -0.1633,-0.14831 -0.0567,-0.0468 -0.11567,-0.091 -0.17673,-0.13229 -0.0611,-0.0413 -0.12411,-0.0798 -0.18914,-0.11524 -0.065,-0.0354 -0.1319,-0.068 -0.2005,-0.0971 -0.0686,-0.0291 -0.13854,-0.0546 -0.21032,-0.077 -1.6e-4,-4e-5 -3.7e-4,5e-5 -5.2e-4,0 -0.0716,-0.0223 -0.14521,-0.0415 -0.21963,-0.0568 -0.0746,-0.0153 -0.15038,-0.0268 -0.22737,-0.0346 -0.077,-0.008 -0.15509,-0.0119 -0.2341,-0.0119 z m 0,0.55449 h 16.14836 c 0.0603,0 0.12007,0.003 0.1788,0.009 0.0587,0.006 0.11681,0.0148 0.17364,0.0264 0.0568,0.0115 0.11228,0.026 0.16691,0.0429 0.0546,0.0169 0.10805,0.0365 0.1602,0.0584 0.0521,0.0219 0.10306,0.0462 0.15244,0.0729 0.0494,0.0267 0.0973,0.0556 0.14366,0.0868 0.0463,0.0312 0.0914,0.0643 0.13436,0.0997 0.043,0.0354 0.0841,0.0728 0.12351,0.11214 0.0394,0.0393 0.0767,0.0806 0.11214,0.1235 0.0354,0.0429 0.069,0.0876 0.10025,0.13385 0.0312,0.0463 0.0601,0.0943 0.0868,0.14366 0.0267,0.0493 0.0514,0.0998 0.0734,0.15193 0.022,0.0521 0.0415,0.10561 0.0584,0.16019 0.0169,0.0546 0.0308,0.11065 0.0424,0.16743 0.0116,0.0568 0.0204,0.11442 0.0264,0.17312 0.006,0.0587 0.009,0.11847 0.009,0.1788 0,0.0603 -0.003,0.11958 -0.009,0.17828 -0.006,0.0587 -0.0148,0.11685 -0.0264,0.17364 -0.0116,0.0568 -0.0255,0.11233 -0.0424,0.16691 -0.0169,0.0546 -0.0364,0.1081 -0.0584,0.1602 -0.022,0.0521 -0.0466,0.1026 -0.0734,0.15193 -0.0268,0.0493 -0.0556,0.0974 -0.0868,0.14366 -0.0312,0.0463 -0.0648,0.0909 -0.10025,0.13384 -0.0354,0.0429 -0.0728,0.0842 -0.11214,0.12351 -0.0394,0.0393 -0.0805,0.0768 -0.12351,0.11213 -0.043,0.0354 -0.088,0.0685 -0.13436,0.0997 -0.0463,0.0312 -0.0943,0.0601 -0.14366,0.0868 -0.0494,0.0267 -0.10029,0.0514 -0.15244,0.0734 -0.0522,0.0219 -0.10557,0.041 -0.1602,0.0579 -0.0546,0.0169 -0.11009,0.0313 -0.16691,0.0429 -0.0568,0.0115 -0.11491,0.0204 -0.17364,0.0263 -0.0587,0.006 -0.11845,0.009 -0.1788,0.009 h -16.14836 c -0.0603,0 -0.12008,-0.003 -0.17881,-0.009 -0.0587,-0.006 -0.11629,-0.0148 -0.17311,-0.0263 -0.0568,-0.0115 -0.1128,-0.026 -0.16743,-0.0429 -0.0546,-0.0169 -0.10805,-0.036 -0.1602,-0.0579 -0.0521,-0.0219 -0.10306,-0.0467 -0.15245,-0.0734 -0.0494,-0.0267 -0.0973,-0.0556 -0.14366,-0.0868 -0.0463,-0.0312 -0.0909,-0.0643 -0.13384,-0.0997 -0.043,-0.0354 -0.0842,-0.0728 -0.1235,-0.11213 -0.0394,-0.0393 -0.0767,-0.0806 -0.11214,-0.12351 -0.0354,-0.0429 -0.069,-0.0876 -0.10025,-0.13384 -0.0312,-0.0463 -0.0606,-0.0943 -0.0873,-0.14366 -0.0268,-0.0493 -0.0509,-0.0998 -0.0729,-0.15193 -0.022,-0.0521 -0.0415,-0.10561 -0.0584,-0.1602 -0.0169,-0.0546 -0.0313,-0.11012 -0.0429,-0.16691 -0.0116,-0.0568 -0.0204,-0.11493 -0.0263,-0.17364 -0.006,-0.0587 -0.009,-0.11794 -0.009,-0.17828 0,-0.0603 0.003,-0.12009 0.009,-0.1788 0.006,-0.0573 0.0147,-0.11401 0.0258,-0.1695 2.3e-4,-0.001 2.7e-4,-0.002 5.1e-4,-0.004 4e-5,-1.6e-4 -3e-5,-3.5e-4 0,-5.1e-4 3.2e-4,-0.002 7.1e-4,-0.003 10e-4,-0.005 0.0114,-0.0552 0.0254,-0.10919 0.0418,-0.16227 0.0169,-0.0546 0.0364,-0.10809 0.0584,-0.16019 0.022,-0.0521 0.0461,-0.10261 0.0729,-0.15193 0.0267,-0.0493 0.0561,-0.0974 0.0873,-0.14366 0.0312,-0.0463 0.0648,-0.0909 0.10025,-0.13385 0.0354,-0.0429 0.0728,-0.0842 0.11214,-0.1235 0.0393,-0.0393 0.0805,-0.0768 0.1235,-0.11214 0.043,-0.0354 0.0875,-0.0686 0.13384,-0.0997 0.0463,-0.0312 0.0943,-0.0601 0.14366,-0.0868 0.044,-0.0238 0.0897,-0.0456 0.13591,-0.0656 0.0101,-0.004 0.0203,-0.009 0.0305,-0.0129 0.0478,-0.0196 0.0964,-0.0373 0.14625,-0.0527 0.0546,-0.0169 0.11061,-0.0314 0.16743,-0.0429 0.0568,-0.0115 0.11438,-0.0205 0.17311,-0.0264 0.0587,-0.006 0.11846,-0.009 0.17881,-0.009 z m -11.91401,6.33605 h 0.4961 v 0.65629 h -0.4961 z m 11.91401,1.79265 c 0.96534,0 1.74252,0.77695 1.74252,1.74253 0,0.96403 -0.77718,1.73996 -1.74252,1.73995 -0.96537,0 -1.74202,-0.77615 -1.74202,-1.73995 0,-0.96536 0.77665,-1.74253 1.74202,-1.74253 z" /></g></svg>
