<?xml version="1.0" encoding="UTF-8" standalone="no"?>
<!-- Uploaded to: SVG Repo, www.svgrepo.com, Generator: SVG Repo Mixer Tools -->

<svg
   fill="#000000"
   height="800px"
   width="800px"
   version="1.1"
   id="Capa_1"
   viewBox="0 0 52 52"
   xml:space="preserve"
   sodipodi:docname="spin.svg"
   inkscape:version="1.2.2 (b0a8486541, 2022-12-01)"
   xmlns:inkscape="http://www.inkscape.org/namespaces/inkscape"
   xmlns:sodipodi="http://sodipodi.sourceforge.net/DTD/sodipodi-0.dtd"
   xmlns="http://www.w3.org/2000/svg"
   xmlns:svg="http://www.w3.org/2000/svg"><defs
   id="defs38">
	
	
</defs><sodipodi:namedview
   id="namedview36"
   pagecolor="#505050"
   bordercolor="#eeeeee"
   borderopacity="1"
   inkscape:showpageshadow="0"
   inkscape:pageopacity="0"
   inkscape:pagecheckerboard="0"
   inkscape:deskcolor="#505050"
   showgrid="false"
   inkscape:zoom="0.35125"
   inkscape:cx="170.81851"
   inkscape:cy="458.36299"
   inkscape:window-width="1356"
   inkscape:window-height="738"
   inkscape:window-x="0"
   inkscape:window-y="26"
   inkscape:window-maximized="1"
   inkscape:current-layer="Capa_1" />
<path
   id="path851"
   style="color:#000000;fill:#000000;stroke:none;stroke-width:1.63052;-inkscape-stroke:none"
   d="M 11.99999 -0.8144043 C 11.007868 -0.8144043 10.185576 0.0067012089 10.185576 1.0000098 L 10.185576 8.9999609 C 10.185576 9.242843 10.234296 9.4766 10.322305 9.6913477 L 10.324209 9.6933789 C 10.508335 10.14002 10.862878 10.491761 11.304795 10.675742 L 11.306699 10.675742 L 11.30873 10.677773 C 11.523478 10.765783 11.757235 10.814502 12.000117 10.814502 L 21.000078 10.814502 C 21.9922 10.814502 22.814619 9.9933965 22.814619 9.0000879 C 22.814619 8.0067793 21.9922 7.1855469 21.000078 7.1855469 L 17.369219 7.1855469 C 20.436281 5.3627397 23.908695 4.3337171 27.560635 4.314502 L 27.668164 4.314502 C 33.031342 4.314502 38.045167 6.3887696 41.828262 10.171865 C 49.293883 17.637487 49.654532 29.736708 42.638857 37.7325 L 42.638857 37.734404 C 41.984281 38.480693 42.058104 39.640128 42.804785 40.295049 L 42.806816 40.295049 L 42.806816 40.296953 C 43.147467 40.594574 43.577621 40.74624 44.00208 40.74624 C 44.504046 40.74624 45.011706 40.533796 45.367334 40.12709 L 45.369365 40.125059 C 53.633421 30.705963 53.208059 16.417149 44.396523 7.6055078 C 39.935667 3.1436166 33.988729 0.68554688 27.669941 0.68554688 L 27.550732 0.68554688 L 27.548828 0.68554688 C 22.550424 0.70977954 17.814925 2.3385403 13.814404 5.197207 L 13.814404 1.0000098 C 13.814404 0.0067012089 12.992112 -0.8144043 11.99999 -0.8144043 z M 7.9740527 11.252236 C 7.9449237 11.252741 7.9157795 11.254042 7.886709 11.255918 C 7.4215813 11.285928 6.9685912 11.492321 6.6406641 11.865293 L 6.6386328 11.865293 C -1.6339521 21.285526 -1.2116486 35.577336 7.6055078 44.394492 C 12.066244 48.8557 18.011781 51.314453 24.330059 51.314453 L 24.451172 51.314453 L 24.453203 51.314453 C 29.451655 51.290223 34.185265 49.661436 38.185596 46.802793 L 38.185596 50.99999 C 38.185596 51.993299 39.007888 52.814404 40.00001 52.814404 C 40.992132 52.814404 41.814551 51.993299 41.814551 50.99999 L 41.814551 43.000039 C 41.814551 42.757157 41.765831 42.5234 41.677822 42.308652 L 41.675791 42.306621 C 41.49196 41.860749 41.13922 41.508086 40.693301 41.324258 C 40.473156 41.232779 40.237425 41.185498 40.00001 41.185498 L 31.000049 41.185498 C 30.007927 41.185498 29.185508 42.00673 29.185508 43.000039 C 29.185508 43.993348 30.007927 44.814453 31.000049 44.814453 L 34.630908 44.814453 C 31.562743 46.637916 28.088921 47.666972 24.435557 47.685498 L 24.433525 47.685498 C 19.02461 47.723978 13.980033 45.636303 10.171865 41.828135 C 2.7032756 34.359545 2.3448304 22.256488 9.3672363 14.26166 L 9.3672363 14.259756 C 10.021812 13.513514 9.9478631 12.354159 9.2011816 11.699238 C 8.8513641 11.391669 8.4109879 11.244672 7.9740527 11.252236 z " />
</svg>
