<?xml version="1.0" encoding="UTF-8" standalone="no"?>
<!-- Created with Inkscape (http://www.inkscape.org/) -->

<svg
   width="100mm"
   height="150mm"
   viewBox="0 0 100 150"
   version="1.1"
   id="svg9627"
   inkscape:version="1.2.2 (b0a8486541, 2022-12-01)"
   sodipodi:docname="team.svg"
   xmlns:inkscape="http://www.inkscape.org/namespaces/inkscape"
   xmlns:sodipodi="http://sodipodi.sourceforge.net/DTD/sodipodi-0.dtd"
   xmlns="http://www.w3.org/2000/svg"
   xmlns:svg="http://www.w3.org/2000/svg">
  <sodipodi:namedview
     id="namedview9629"
     pagecolor="#505050"
     bordercolor="#eeeeee"
     borderopacity="1"
     inkscape:showpageshadow="0"
     inkscape:pageopacity="0"
     inkscape:pagecheckerboard="0"
     inkscape:deskcolor="#505050"
     inkscape:document-units="mm"
     showgrid="false"
     showguides="true"
     inkscape:zoom="0.675283"
     inkscape:cx="306.53815"
     inkscape:cy="268.03577"
     inkscape:window-width="1360"
     inkscape:window-height="718"
     inkscape:window-x="0"
     inkscape:window-y="26"
     inkscape:window-maximized="1"
     inkscape:current-layer="layer1" />
  <defs
     id="defs9624" />
  <g
     inkscape:label="Capa 1"
     inkscape:groupmode="layer"
     id="layer1">
    <path
       id="path17002"
       style="color:#000000;fill:#000000;stroke-width:6.84186;-inkscape-stroke:none;paint-order:markers stroke fill"
       d="m 25.919021,34.996504 c -5.600281,-2.8e-5 -10.140228,4.539936 -10.14021,10.140208 2.39e-4,5.600092 4.540118,10.139748 10.14021,10.139719 5.600082,2.9e-5 10.13997,-4.539627 10.140207,-10.139719 1.9e-5,-5.600272 -4.539936,-10.140236 -10.140207,-10.140208 z m 48.161951,0 c -5.600271,-2.8e-5 -10.140229,4.539936 -10.140209,10.140208 2.36e-4,5.600092 4.540128,10.139748 10.140209,10.139719 5.600075,2.9e-5 10.139972,-4.539627 10.140209,-10.139719 C 84.2212,39.53644 79.681236,34.996476 74.080972,34.996504 Z M 49.937803,41.519791 A 10.890525,10.890525 0 0 0 39.047375,52.41071 10.890525,10.890525 0 0 0 49.937803,63.300648 10.890525,10.890525 0 0 0 60.828232,52.41071 10.890525,10.890525 0 0 0 49.937803,41.519791 Z M 16.316012,58.085348 c -5.466267,0 -9.8669555,4.400688 -9.8669555,9.866956 v 20.616351 4.715807 c 0,0 0.2793849,-0.565276 0.7747045,-0.86432 1.4173816,-0.917549 3.098034,-1.454897 4.892587,-1.454897 h 13.237069 v -14.05144 c 0,-7.840125 6.423247,-14.266054 14.2625,-14.269844 -1.279645,-1.290343 -2.320299,-2.816663 -3.051808,-4.503767 -0.342396,-0.03563 -0.689952,-0.05486 -1.04208,-0.05486 z m 48.16195,0 c -0.397802,0 -0.789072,0.0262 -1.174299,0.07149 -0.731596,1.680472 -1.770006,3.20103 -3.045441,4.487118 7.839225,0.0038 14.264458,6.42971 14.264458,14.269844 v 14.051439 h 13.360963 c 1.784979,0 3.456952,0.532078 4.869569,1.440695 0.0075,0.0049 0.01526,0.0095 0.02303,0.0142 0.495324,0.29905 0.774704,0.863829 0.774704,0.863829 V 88.568655 67.952304 c 0,-5.466268 -4.400692,-9.866956 -9.866952,-9.866956 z m -24.853721,8.231849 c -5.870779,0 -10.597097,4.726289 -10.597097,10.597098 v 17.47248 H 12.116838 c -3.1399139,0 -5.6677815,2.527857 -5.6677815,5.667785 v 9.28078 c 0,3.13991 2.5278676,5.66778 5.6677815,5.66778 h 75.766313 c 3.139913,0 5.667782,-2.52787 5.667782,-5.66778 v -9.28078 c 0,-3.139928 -2.527869,-5.667785 -5.667782,-5.667785 H 70.848464 v -17.47248 c 0,-5.870809 -4.726328,-10.597098 -10.597098,-10.597098 z m 10.699445,31.054297 h 5.801961 l 5.327441,14.647406 h -4.763307 l -0.789885,-2.73742 H 50.66256 l -0.812901,2.73742 h -4.785344 z m -33.305934,0.06121 h 12.213107 v 3.227606 h -3.928371 v 11.35858 H 20.945632 V 100.6603 h -3.927879 z m 15.953432,0 h 9.571667 v 3.166406 h -5.21481 v 2.28787 h 4.830886 v 3.16639 h -4.830886 v 2.758 h 5.21481 v 3.20752 h -9.571667 z m 31.657606,0 h 5.801961 l 3.363251,10.357136 h 0.0906 l 3.295675,-10.357136 h 5.801473 v 14.586186 h -3.995459 v -6.3945 c 0,-0.46306 0.0075,-0.95303 0.02256,-1.47056 0.01507,-0.53115 0.03752,-1.02858 0.06757,-1.49163 0.03005,-0.47667 0.05297,-0.85098 0.06804,-1.12337 h -0.09011 l -3.251117,10.48006 h -4.153609 l -3.295678,-10.50063 h -0.0901 c 0.03005,0.27236 0.05997,0.64026 0.0901,1.1033 0.03003,0.46302 0.05998,0.96693 0.09011,1.51171 0.03003,0.53114 0.04505,1.04842 0.04505,1.55234 v 6.33329 H 64.628789 Z M 53.258456,99.78179 c -0.06017,0.32687 -0.157895,0.73543 -0.29333,1.22572 -0.120386,0.49029 -0.24848,0.97381 -0.383924,1.45049 -0.120395,0.47667 -0.225566,0.87829 -0.315856,1.20514 l -0.699781,2.39023 h 3.431324 l -0.69978,-2.39023 c -0.07524,-0.25876 -0.180902,-0.62612 -0.316347,-1.1028 -0.135441,-0.49029 -0.270506,-0.99417 -0.40596,-1.51169 -0.135434,-0.51753 -0.241095,-0.93999 -0.316346,-1.26686 z" />
  </g>
</svg>
